<svg width="512" height="513" viewBox="0 0 512 513" fill="none" xmlns="http://www.w3.org/2000/svg">
<path fill-rule="evenodd" clip-rule="evenodd" d="M143.5 143.5C143.5 136.87 146.134 130.511 150.822 125.822C155.511 121.134 161.87 118.5 168.5 118.5H293.275C299.905 118.501 306.263 121.136 310.95 125.825L361.175 176.05C365.864 180.737 368.499 187.095 368.5 193.725V368.5C368.5 375.13 365.866 381.489 361.178 386.178C356.489 390.866 350.13 393.5 343.5 393.5H165.375C162.889 393.5 160.504 392.512 158.746 390.754C156.988 388.996 156 386.611 156 384.125C156 381.639 156.988 379.254 158.746 377.496C160.504 375.738 162.889 374.75 165.375 374.75H343.5C345.158 374.75 346.747 374.092 347.919 372.919C349.092 371.747 349.75 370.158 349.75 368.5V212.25H299.75C293.12 212.25 286.761 209.616 282.072 204.928C277.384 200.239 274.75 193.88 274.75 187.25V137.25H168.5C166.842 137.25 165.253 137.908 164.081 139.081C162.908 140.253 162.25 141.842 162.25 143.5V221.625C162.25 224.111 161.262 226.496 159.504 228.254C157.746 230.012 155.361 231 152.875 231C150.389 231 148.004 230.012 146.246 228.254C144.488 226.496 143.5 224.111 143.5 221.625V143.5ZM293.5 137.25V187.25C293.5 188.908 294.158 190.497 295.331 191.669C296.503 192.842 298.092 193.5 299.75 193.5H349.75C349.695 191.92 349.043 190.419 347.925 189.3L297.7 139.075C296.581 137.957 295.08 137.305 293.5 137.25ZM222.35 287.25L196.05 259.3C195.18 258.409 194.496 257.353 194.038 256.195C193.581 255.036 193.358 253.798 193.385 252.553C193.411 251.308 193.685 250.08 194.191 248.942C194.697 247.804 195.425 246.778 196.331 245.924C197.238 245.07 198.306 244.406 199.473 243.969C200.64 243.533 201.881 243.333 203.126 243.382C204.371 243.431 205.593 243.728 206.722 244.255C207.85 244.781 208.863 245.528 209.7 246.45L250.875 290.2C252.512 291.939 253.423 294.237 253.423 296.625C253.423 299.013 252.512 301.311 250.875 303.05L209.7 346.8C208.863 347.722 207.85 348.469 206.722 348.995C205.593 349.522 204.371 349.819 203.126 349.868C201.881 349.917 200.64 349.717 199.473 349.281C198.306 348.844 197.238 348.18 196.331 347.326C195.425 346.472 194.697 345.446 194.191 344.308C193.685 343.17 193.411 341.942 193.385 340.697C193.358 339.452 193.581 338.214 194.038 337.055C194.496 335.897 195.18 334.841 196.05 333.95L222.35 306H157.125C148.539 306 140.304 309.411 134.232 315.482C128.161 321.554 124.75 329.789 124.75 338.375V377.875C124.75 380.361 123.762 382.746 122.004 384.504C120.246 386.262 117.861 387.25 115.375 387.25C112.889 387.25 110.504 386.262 108.746 384.504C106.988 382.746 106 380.361 106 377.875V338.375C106 324.816 111.386 311.812 120.974 302.224C130.562 292.636 143.566 287.25 157.125 287.25H222.35Z" fill="#3F51B5"/>
<circle cx="256" cy="256" r="246.7" stroke="#3F51B5" stroke-width="18.6"/>
<path d="M251 502.971C205.667 503.996 115 478.238 115 367" stroke="#3F51B5" stroke-width="18.6"/>
</svg>
